<svg xmlns="http://www.w3.org/2000/svg" viewBox="0 0 1280 720" role="img" aria-label="Mockup UI Aplikasi POS">
  <defs>
    <linearGradient id="bg" x1="0" y1="0" x2="1" y2="1">
      <stop offset="0" stop-color="#f7fafb"/>
      <stop offset="1" stop-color="#edf3f5"/>
    </linearGradient>
    <filter id="shadow" x="-10%" y="-10%" width="120%" height="130%">
      <feDropShadow dx="0" dy="16" stdDeviation="18" flood-color="#10212a" flood-opacity=".12"/>
    </filter>
  </defs>

  <rect width="1280" height="720" fill="url(#bg)"/>
  <rect x="36" y="34" width="1208" height="652" rx="22" fill="#fff" filter="url(#shadow)"/>
  <rect x="36" y="34" width="1208" height="72" rx="22" fill="#101820"/>
  <path d="M36 84h1208v22H36z" fill="#101820"/>

  <g font-family="Segoe UI, Arial, sans-serif">
    <text x="72" y="80" fill="#fff" font-size="28" font-weight="800">Aplikasi POS</text>
    <text x="260" y="80" fill="#6ff4e8" font-size="15" font-weight="700">Kasir dan transaksi harian</text>
    <rect x="998" y="54" width="170" height="34" rx="9" fill="#1fb5a8"/>
    <text x="1032" y="77" fill="#06201d" font-size="14" font-weight="800">Shift Aktif</text>
  </g>

  <g font-family="Segoe UI, Arial, sans-serif">
    <rect x="72" y="142" width="708" height="476" rx="16" fill="#f8fbfc" stroke="#dfe7ea"/>
    <text x="104" y="184" fill="#172026" font-size="22" font-weight="800">Daftar Produk</text>
    <rect x="104" y="208" width="630" height="46" rx="10" fill="#fff" stroke="#dfe7ea"/>
    <text x="128" y="237" fill="#8a98a1" font-size="15">Cari produk atau scan barcode</text>

    <g>
      <rect x="104" y="286" width="132" height="118" rx="14" fill="#fff" stroke="#dfe7ea"/>
      <rect x="126" y="308" width="88" height="40" rx="10" fill="#e8f7f5"/>
      <text x="126" y="374" fill="#172026" font-size="15" font-weight="800">Produk A</text>
      <text x="126" y="394" fill="#68727d" font-size="13">Rp 25.000</text>

      <rect x="260" y="286" width="132" height="118" rx="14" fill="#fff" stroke="#dfe7ea"/>
      <rect x="282" y="308" width="88" height="40" rx="10" fill="#fff2df"/>
      <text x="282" y="374" fill="#172026" font-size="15" font-weight="800">Produk B</text>
      <text x="282" y="394" fill="#68727d" font-size="13">Rp 18.000</text>

      <rect x="416" y="286" width="132" height="118" rx="14" fill="#fff" stroke="#dfe7ea"/>
      <rect x="438" y="308" width="88" height="40" rx="10" fill="#edf0ff"/>
      <text x="438" y="374" fill="#172026" font-size="15" font-weight="800">Produk C</text>
      <text x="438" y="394" fill="#68727d" font-size="13">Rp 32.000</text>

      <rect x="572" y="286" width="132" height="118" rx="14" fill="#fff" stroke="#dfe7ea"/>
      <rect x="594" y="308" width="88" height="40" rx="10" fill="#edf2f4"/>
      <text x="594" y="374" fill="#172026" font-size="15" font-weight="800">Produk D</text>
      <text x="594" y="394" fill="#68727d" font-size="13">Rp 45.000</text>
    </g>

    <rect x="104" y="442" width="630" height="132" rx="14" fill="#fff" stroke="#dfe7ea"/>
    <text x="128" y="478" fill="#172026" font-size="18" font-weight="800">Transaksi Terakhir</text>
    <line x1="128" y1="506" x2="710" y2="506" stroke="#e7eef1"/>
    <text x="128" y="536" fill="#68727d" font-size="14">INV-00124</text>
    <text x="292" y="536" fill="#68727d" font-size="14">Tunai</text>
    <text x="566" y="536" fill="#172026" font-size="14" font-weight="800">Rp 185.000</text>
  </g>

  <g font-family="Segoe UI, Arial, sans-serif">
    <rect x="812" y="142" width="356" height="476" rx="16" fill="#fff" stroke="#dfe7ea"/>
    <text x="844" y="184" fill="#172026" font-size="22" font-weight="800">Keranjang</text>
    <text x="844" y="214" fill="#68727d" font-size="14">3 item dipilih</text>

    <line x1="844" y1="248" x2="1136" y2="248" stroke="#e7eef1"/>
    <text x="844" y="286" fill="#172026" font-size="15" font-weight="800">Produk A</text>
    <text x="1092" y="286" fill="#172026" font-size="15" font-weight="800">2x</text>
    <text x="844" y="332" fill="#172026" font-size="15" font-weight="800">Produk B</text>
    <text x="1092" y="332" fill="#172026" font-size="15" font-weight="800">1x</text>
    <line x1="844" y1="370" x2="1136" y2="370" stroke="#e7eef1"/>

    <text x="844" y="414" fill="#68727d" font-size="15" font-weight="700">Subtotal</text>
    <text x="1030" y="414" fill="#172026" font-size="15" font-weight="800">Rp 68.000</text>
    <text x="844" y="458" fill="#68727d" font-size="15" font-weight="700">Diskon</text>
    <text x="1056" y="458" fill="#172026" font-size="15" font-weight="800">Rp 0</text>
    <text x="844" y="512" fill="#172026" font-size="20" font-weight="800">Total</text>
    <text x="1000" y="512" fill="#172026" font-size="22" font-weight="900">Rp 68.000</text>

    <rect x="844" y="546" width="292" height="48" rx="10" fill="#1fb5a8"/>
    <text x="944" y="577" fill="#06201d" font-size="16" font-weight="900">Bayar</text>
  </g>
</svg>
