<svg xmlns="http://www.w3.org/2000/svg" viewBox="0 0 1280 720" role="img" aria-label="Mockup UI Dashboard Penjualan">
  <defs>
    <linearGradient id="bg" x1="0" y1="0" x2="1" y2="1">
      <stop offset="0" stop-color="#f6fafb"/>
      <stop offset="1" stop-color="#edf3f5"/>
    </linearGradient>
    <linearGradient id="teal" x1="0" y1="0" x2="1" y2="1">
      <stop offset="0" stop-color="#1fb5a8"/>
      <stop offset="1" stop-color="#12736c"/>
    </linearGradient>
    <linearGradient id="amber" x1="0" y1="0" x2="1" y2="1">
      <stop offset="0" stop-color="#f2a541"/>
      <stop offset="1" stop-color="#c77720"/>
    </linearGradient>
    <filter id="shadow" x="-10%" y="-10%" width="120%" height="130%">
      <feDropShadow dx="0" dy="16" stdDeviation="18" flood-color="#10212a" flood-opacity=".12"/>
    </filter>
  </defs>

  <rect width="1280" height="720" fill="url(#bg)"/>
  <rect x="36" y="34" width="1208" height="652" rx="22" fill="#ffffff" filter="url(#shadow)"/>

  <rect x="36" y="34" width="246" height="652" rx="22" fill="#101820"/>
  <path d="M260 34h22v652h-22z" fill="#101820"/>

  <text x="72" y="86" fill="#ffffff" font-family="Segoe UI, Arial, sans-serif" font-size="30" font-weight="800">BBC-Zone</text>
  <text x="72" y="117" fill="#6ff4e8" font-family="Segoe UI, Arial, sans-serif" font-size="15" font-weight="700">Sales System</text>

  <g font-family="Segoe UI, Arial, sans-serif" font-size="17" font-weight="700">
    <rect x="62" y="158" width="190" height="48" rx="10" fill="#1fb5a8"/>
    <circle cx="86" cy="182" r="6" fill="#101820"/>
    <text x="104" y="188" fill="#08211f">Dashboard</text>
    <text x="104" y="254" fill="#b9c7cd">Penjualan</text>
    <text x="104" y="314" fill="#b9c7cd">Produk</text>
    <text x="104" y="374" fill="#b9c7cd">Transaksi</text>
    <text x="104" y="434" fill="#b9c7cd">Laporan</text>
    <text x="104" y="494" fill="#b9c7cd">Pengaturan</text>
  </g>

  <g font-family="Segoe UI, Arial, sans-serif">
    <text x="326" y="86" fill="#172026" font-size="32" font-weight="800">Dashboard Penjualan</text>
    <text x="326" y="118" fill="#68727d" font-size="16">Ringkasan performa penjualan dan transaksi berjalan</text>

    <rect x="1022" y="62" width="168" height="42" rx="10" fill="#f3f7f8" stroke="#dce7ea"/>
    <text x="1050" y="88" fill="#52616b" font-size="15" font-weight="700">Bulan Ini</text>
  </g>

  <g font-family="Segoe UI, Arial, sans-serif">
    <rect x="326" y="152" width="198" height="112" rx="16" fill="#ffffff" stroke="#dfe7ea"/>
    <text x="350" y="190" fill="#68727d" font-size="15" font-weight="700">Total Penjualan</text>
    <text x="350" y="230" fill="#172026" font-size="34" font-weight="800">Rp 128 Jt</text>

    <rect x="548" y="152" width="198" height="112" rx="16" fill="#ffffff" stroke="#dfe7ea"/>
    <text x="572" y="190" fill="#68727d" font-size="15" font-weight="700">Transaksi</text>
    <text x="572" y="230" fill="#172026" font-size="34" font-weight="800">1.284</text>

    <rect x="770" y="152" width="198" height="112" rx="16" fill="#ffffff" stroke="#dfe7ea"/>
    <text x="794" y="190" fill="#68727d" font-size="15" font-weight="700">Target</text>
    <text x="794" y="230" fill="#172026" font-size="34" font-weight="800">86%</text>

    <rect x="992" y="152" width="198" height="112" rx="16" fill="#ffffff" stroke="#dfe7ea"/>
    <text x="1016" y="190" fill="#68727d" font-size="15" font-weight="700">Produk Aktif</text>
    <text x="1016" y="230" fill="#172026" font-size="34" font-weight="800">342</text>
  </g>

  <g font-family="Segoe UI, Arial, sans-serif">
    <rect x="326" y="294" width="570" height="300" rx="16" fill="#ffffff" stroke="#dfe7ea"/>
    <text x="354" y="336" fill="#172026" font-size="20" font-weight="800">Grafik Penjualan</text>
    <text x="354" y="362" fill="#68727d" font-size="14">Perbandingan penjualan per periode</text>
    <line x1="354" y1="544" x2="856" y2="544" stroke="#e6eef1"/>
    <line x1="354" y1="492" x2="856" y2="492" stroke="#e6eef1"/>
    <line x1="354" y1="440" x2="856" y2="440" stroke="#e6eef1"/>
    <line x1="354" y1="388" x2="856" y2="388" stroke="#e6eef1"/>
    <path d="M370 520c42-24 62-76 108-68 42 7 55 62 100 52 54-12 52-105 106-116 46-9 72 52 114 36 30-11 42-42 58-68" fill="none" stroke="#1fb5a8" stroke-width="7" stroke-linecap="round"/>
    <path d="M370 540c34-10 65-34 104-26 52 10 70 42 120 28 45-12 56-56 106-60 52-4 74 34 116 20 18-6 30-17 40-30" fill="none" stroke="#f2a541" stroke-width="7" stroke-linecap="round"/>
    <g fill="#95a3aa" font-size="13" font-weight="700">
      <text x="364" y="570">Jan</text><text x="452" y="570">Feb</text><text x="540" y="570">Mar</text>
      <text x="628" y="570">Apr</text><text x="716" y="570">Mei</text><text x="804" y="570">Jun</text>
    </g>
  </g>

  <g font-family="Segoe UI, Arial, sans-serif">
    <rect x="922" y="294" width="268" height="300" rx="16" fill="#ffffff" stroke="#dfe7ea"/>
    <text x="950" y="336" fill="#172026" font-size="20" font-weight="800">Status Order</text>
    <circle cx="1056" cy="438" r="70" fill="none" stroke="#edf2f4" stroke-width="22"/>
    <circle cx="1056" cy="438" r="70" fill="none" stroke="url(#teal)" stroke-width="22" stroke-linecap="round" stroke-dasharray="280 440" transform="rotate(-90 1056 438)"/>
    <circle cx="1056" cy="438" r="70" fill="none" stroke="url(#amber)" stroke-width="22" stroke-linecap="round" stroke-dasharray="110 440" stroke-dashoffset="-285" transform="rotate(-90 1056 438)"/>
    <text x="1024" y="446" fill="#172026" font-size="26" font-weight="800">74%</text>
    <rect x="954" y="536" width="14" height="14" rx="3" fill="#1fb5a8"/>
    <text x="978" y="549" fill="#68727d" font-size="14" font-weight="700">Selesai</text>
    <rect x="1074" y="536" width="14" height="14" rx="3" fill="#f2a541"/>
    <text x="1098" y="549" fill="#68727d" font-size="14" font-weight="700">Proses</text>
  </g>

  <g font-family="Segoe UI, Arial, sans-serif">
    <rect x="326" y="620" width="864" height="42" rx="12" fill="#f8fbfc" stroke="#e0e9ec"/>
    <text x="354" y="646" fill="#52616b" font-size="15" font-weight="800">Transaksi Terbaru</text>
    <text x="540" y="646" fill="#82919a" font-size="14">Invoice</text>
    <text x="704" y="646" fill="#82919a" font-size="14">Pelanggan</text>
    <text x="900" y="646" fill="#82919a" font-size="14">Status</text>
    <text x="1058" y="646" fill="#82919a" font-size="14">Total</text>
  </g>
</svg>
